<mxfile host="Electron" agent="Mozilla/5.0 (Windows NT 10.0; Win64; x64) AppleWebKit/537.36 (KHTML, like Gecko) draw.io/27.0.9 Chrome/134.0.6998.205 Electron/35.4.0 Safari/537.36" version="27.0.9">
  <diagram name="Page-1" id="zLwfZMLRcO3uAaGRWkhB">
    <mxGraphModel dx="965" dy="1807" grid="1" gridSize="1" guides="1" tooltips="1" connect="1" arrows="1" fold="1" page="1" pageScale="1" pageWidth="827" pageHeight="1169" math="0" shadow="0">
      <root>
        <mxCell id="0" />
        <mxCell id="1" parent="0" />
        <mxCell id="yhztme63bc7gSXWzfOLG-131" value="" style="endArrow=none;html=1;rounded=0;dashed=1;dashPattern=1 2;" edge="1" parent="1">
          <mxGeometry width="50" height="50" relative="1" as="geometry">
            <mxPoint x="265" y="139" as="sourcePoint" />
            <mxPoint x="265" y="-39" as="targetPoint" />
          </mxGeometry>
        </mxCell>
        <mxCell id="yhztme63bc7gSXWzfOLG-104" value="&lt;font style=&quot;color: rgb(255, 255, 255);&quot;&gt;&lt;b style=&quot;&quot;&gt;&lt;span style=&quot;font-size: 44px;&quot;&gt;S&lt;/span&gt;&lt;font style=&quot;font-size: 35px;&quot;&gt;&amp;nbsp;&lt;/font&gt;&lt;/b&gt;&lt;/font&gt;" style="rounded=0;whiteSpace=wrap;html=1;strokeColor=#36393d;fillColor=#cdeb8b;movable=1;resizable=1;rotatable=1;deletable=1;editable=1;locked=0;connectable=1;" vertex="1" parent="1">
          <mxGeometry x="161" y="91" width="88" height="114" as="geometry" />
        </mxCell>
        <mxCell id="yhztme63bc7gSXWzfOLG-86" value="" style="endArrow=none;html=1;rounded=1;exitX=0.5;exitY=0;exitDx=0;exitDy=0;curved=0;strokeWidth=1.9685;dashed=1;fillColor=#a20025;strokeColor=#B5739D;" edge="1" parent="1">
          <mxGeometry width="50" height="50" relative="1" as="geometry">
            <mxPoint x="170" y="335" as="sourcePoint" />
            <mxPoint x="161" y="31" as="targetPoint" />
            <Array as="points">
              <mxPoint x="170" y="268" />
              <mxPoint x="215" y="219" />
              <mxPoint x="215" y="76" />
              <mxPoint x="171" y="36" />
              <mxPoint x="164" y="31" />
            </Array>
          </mxGeometry>
        </mxCell>
        <mxCell id="yhztme63bc7gSXWzfOLG-84" value="" style="endArrow=none;html=1;rounded=1;exitX=0.5;exitY=0;exitDx=0;exitDy=0;curved=0;strokeWidth=1.9685;dashed=1;fillColor=#fff2cc;strokeColor=#D6B656;" edge="1" parent="1">
          <mxGeometry width="50" height="50" relative="1" as="geometry">
            <mxPoint x="190" y="335" as="sourcePoint" />
            <mxPoint x="191" y="36" as="targetPoint" />
            <Array as="points">
              <mxPoint x="190" y="268" />
              <mxPoint x="235" y="219" />
              <mxPoint x="235" y="76" />
            </Array>
          </mxGeometry>
        </mxCell>
        <mxCell id="yhztme63bc7gSXWzfOLG-120" value="" style="endArrow=none;html=1;rounded=1;curved=0;strokeWidth=1.9685;dashed=1;strokeColor=#6C8EBF;" edge="1" parent="1">
          <mxGeometry width="50" height="50" relative="1" as="geometry">
            <mxPoint x="610" y="335" as="sourcePoint" />
            <mxPoint x="639" y="236" as="targetPoint" />
            <Array as="points">
              <mxPoint x="610" y="268" />
            </Array>
          </mxGeometry>
        </mxCell>
        <mxCell id="yhztme63bc7gSXWzfOLG-116" value="" style="endArrow=none;html=1;rounded=1;exitX=0.5;exitY=0;exitDx=0;exitDy=0;curved=0;strokeWidth=1.9685;dashed=1;strokeColor=#82B366;" edge="1" parent="1" source="ut4NBQotwpVBYfQdr2g3-36">
          <mxGeometry width="50" height="50" relative="1" as="geometry">
            <mxPoint x="627" y="323" as="sourcePoint" />
            <mxPoint x="639" y="258" as="targetPoint" />
            <Array as="points">
              <mxPoint x="630" y="269" />
            </Array>
          </mxGeometry>
        </mxCell>
        <mxCell id="yhztme63bc7gSXWzfOLG-100" value="&lt;font style=&quot;font-size: 44px; color: rgb(255, 255, 255);&quot;&gt;&lt;b&gt;S&lt;/b&gt;&lt;/font&gt;" style="rounded=0;whiteSpace=wrap;html=1;strokeColor=#36393d;fillColor=#cdeb8b;movable=1;resizable=1;rotatable=1;deletable=1;editable=1;locked=0;connectable=1;" vertex="1" parent="1">
          <mxGeometry x="395" y="91" width="90" height="114" as="geometry" />
        </mxCell>
        <mxCell id="yhztme63bc7gSXWzfOLG-101" value="&lt;font style=&quot;font-size: 44px; color: rgb(255, 255, 255);&quot;&gt;&lt;b&gt;N&lt;/b&gt;&lt;/font&gt;" style="rounded=0;whiteSpace=wrap;html=1;strokeColor=#006EAF;fillColor=#1ba1e2;movable=1;resizable=1;rotatable=1;deletable=1;editable=1;locked=0;connectable=1;fontColor=#ffffff;" vertex="1" parent="1">
          <mxGeometry x="513" y="91" width="90" height="114" as="geometry" />
        </mxCell>
        <mxCell id="yhztme63bc7gSXWzfOLG-102" value="" style="rounded=0;whiteSpace=wrap;html=1;strokeColor=#36393d;fillColor=#cdeb8b;movable=1;resizable=1;rotatable=1;deletable=1;editable=1;locked=0;connectable=1;" vertex="1" parent="1">
          <mxGeometry x="631" y="91" width="8" height="114" as="geometry" />
        </mxCell>
        <mxCell id="yhztme63bc7gSXWzfOLG-96" value="&lt;font style=&quot;font-size: 44px; color: rgb(255, 255, 255);&quot;&gt;&lt;b&gt;N&lt;/b&gt;&lt;/font&gt;" style="rounded=0;whiteSpace=wrap;html=1;strokeColor=#006EAF;fillColor=#1ba1e2;movable=1;resizable=1;rotatable=1;deletable=1;editable=1;locked=0;connectable=1;fontColor=#ffffff;" vertex="1" parent="1">
          <mxGeometry x="277" y="91" width="90" height="114" as="geometry" />
        </mxCell>
        <mxCell id="ut4NBQotwpVBYfQdr2g3-7" value="&lt;span&gt;18&lt;/span&gt;" style="rounded=0;whiteSpace=wrap;html=1;rotation=0;strokeWidth=0;fillColor=#CB6D51;fontStyle=1;fontColor=#FFFFFF;" parent="1" vertex="1">
          <mxGeometry x="161" y="335" width="18" height="80" as="geometry" />
        </mxCell>
        <mxCell id="ut4NBQotwpVBYfQdr2g3-14" value="19" style="rounded=0;whiteSpace=wrap;html=1;rotation=0;strokeWidth=0;fillColor=#CB6D51;fontStyle=1;fontColor=#FFFFFF;" parent="1" vertex="1">
          <mxGeometry x="181" y="335" width="18" height="80" as="geometry" />
        </mxCell>
        <mxCell id="ut4NBQotwpVBYfQdr2g3-15" value="20" style="rounded=0;whiteSpace=wrap;html=1;rotation=0;strokeWidth=0;fillColor=#CB6D51;fontStyle=1;fontColor=#FFFFFF;" parent="1" vertex="1">
          <mxGeometry x="201" y="335" width="18" height="80" as="geometry" />
        </mxCell>
        <mxCell id="ut4NBQotwpVBYfQdr2g3-16" value="21" style="rounded=0;whiteSpace=wrap;html=1;rotation=0;strokeWidth=0;fillColor=#CB6D51;fontStyle=1;fontColor=#FFFFFF;" parent="1" vertex="1">
          <mxGeometry x="221" y="335" width="18" height="80" as="geometry" />
        </mxCell>
        <mxCell id="ut4NBQotwpVBYfQdr2g3-17" value="22" style="rounded=0;whiteSpace=wrap;html=1;rotation=0;strokeWidth=0;fillColor=#CB6D51;fontStyle=1;fontColor=#FFFFFF;" parent="1" vertex="1">
          <mxGeometry x="241" y="335" width="18" height="80" as="geometry" />
        </mxCell>
        <mxCell id="ut4NBQotwpVBYfQdr2g3-18" value="23" style="rounded=0;whiteSpace=wrap;html=1;rotation=0;strokeWidth=0;fillColor=#CB6D51;fontStyle=1;fontColor=#FFFFFF;" parent="1" vertex="1">
          <mxGeometry x="261" y="335" width="18" height="80" as="geometry" />
        </mxCell>
        <mxCell id="ut4NBQotwpVBYfQdr2g3-19" value="24" style="rounded=0;whiteSpace=wrap;html=1;rotation=0;strokeWidth=0;fillColor=#CB6D51;fontStyle=1;fontColor=#FFFFFF;" parent="1" vertex="1">
          <mxGeometry x="281" y="335" width="18" height="80" as="geometry" />
        </mxCell>
        <mxCell id="ut4NBQotwpVBYfQdr2g3-20" value="1" style="rounded=0;whiteSpace=wrap;html=1;rotation=0;strokeWidth=0;fillColor=#CB6D51;fontStyle=1;fontColor=#FFFFFF;" parent="1" vertex="1">
          <mxGeometry x="301" y="335" width="18" height="80" as="geometry" />
        </mxCell>
        <mxCell id="ut4NBQotwpVBYfQdr2g3-21" value="2" style="rounded=0;whiteSpace=wrap;html=1;rotation=0;strokeWidth=0;fillColor=#CB6D51;fontStyle=1;fontColor=#FFFFFF;" parent="1" vertex="1">
          <mxGeometry x="321" y="335" width="18" height="80" as="geometry" />
        </mxCell>
        <mxCell id="ut4NBQotwpVBYfQdr2g3-22" value="3" style="rounded=0;whiteSpace=wrap;html=1;rotation=0;strokeWidth=0;fillColor=#CB6D51;fontStyle=1;fontColor=#FFFFFF;" parent="1" vertex="1">
          <mxGeometry x="341" y="335" width="18" height="80" as="geometry" />
        </mxCell>
        <mxCell id="ut4NBQotwpVBYfQdr2g3-23" value="4" style="rounded=0;whiteSpace=wrap;html=1;rotation=0;strokeWidth=0;fillColor=#CB6D51;fontStyle=1;fontColor=#FFFFFF;" parent="1" vertex="1">
          <mxGeometry x="361" y="335" width="18" height="80" as="geometry" />
        </mxCell>
        <mxCell id="ut4NBQotwpVBYfQdr2g3-24" value="5" style="rounded=0;whiteSpace=wrap;html=1;rotation=0;strokeWidth=0;fillColor=#CB6D51;fontStyle=1;fontColor=#FFFFFF;" parent="1" vertex="1">
          <mxGeometry x="381" y="335" width="18" height="80" as="geometry" />
        </mxCell>
        <mxCell id="ut4NBQotwpVBYfQdr2g3-25" value="6" style="rounded=0;whiteSpace=wrap;html=1;rotation=0;strokeWidth=0;fillColor=#CB6D51;fontStyle=1;fontColor=#FFFFFF;" parent="1" vertex="1">
          <mxGeometry x="401" y="335" width="18" height="80" as="geometry" />
        </mxCell>
        <mxCell id="ut4NBQotwpVBYfQdr2g3-26" value="7" style="rounded=0;whiteSpace=wrap;html=1;rotation=0;strokeWidth=0;fillColor=#CB6D51;fontStyle=1;fontColor=#FFFFFF;" parent="1" vertex="1">
          <mxGeometry x="421" y="335" width="18" height="80" as="geometry" />
        </mxCell>
        <mxCell id="ut4NBQotwpVBYfQdr2g3-27" value="8" style="rounded=0;whiteSpace=wrap;html=1;rotation=0;strokeWidth=0;fillColor=#CB6D51;fontStyle=1;fontColor=#FFFFFF;" parent="1" vertex="1">
          <mxGeometry x="441" y="335" width="18" height="80" as="geometry" />
        </mxCell>
        <mxCell id="ut4NBQotwpVBYfQdr2g3-28" value="9" style="rounded=0;whiteSpace=wrap;html=1;rotation=0;strokeWidth=0;fillColor=#CB6D51;fontStyle=1;fontColor=#FFFFFF;" parent="1" vertex="1">
          <mxGeometry x="461" y="335" width="18" height="80" as="geometry" />
        </mxCell>
        <mxCell id="ut4NBQotwpVBYfQdr2g3-29" value="10" style="rounded=0;whiteSpace=wrap;html=1;rotation=0;strokeWidth=0;fillColor=#CB6D51;fontStyle=1;fontColor=#FFFFFF;" parent="1" vertex="1">
          <mxGeometry x="481" y="335" width="18" height="80" as="geometry" />
        </mxCell>
        <mxCell id="ut4NBQotwpVBYfQdr2g3-30" value="11" style="rounded=0;whiteSpace=wrap;html=1;rotation=0;strokeWidth=0;fillColor=#CB6D51;fontStyle=1;fontColor=#FFFFFF;" parent="1" vertex="1">
          <mxGeometry x="501" y="335" width="18" height="80" as="geometry" />
        </mxCell>
        <mxCell id="ut4NBQotwpVBYfQdr2g3-31" value="12" style="rounded=0;whiteSpace=wrap;html=1;rotation=0;strokeWidth=0;fillColor=#CB6D51;fontStyle=1;fontColor=#FFFFFF;" parent="1" vertex="1">
          <mxGeometry x="521" y="335" width="18" height="80" as="geometry" />
        </mxCell>
        <mxCell id="ut4NBQotwpVBYfQdr2g3-32" value="13" style="rounded=0;whiteSpace=wrap;html=1;rotation=0;strokeWidth=0;fillColor=#CB6D51;fontStyle=1;fontColor=#FFFFFF;" parent="1" vertex="1">
          <mxGeometry x="541" y="335" width="18" height="80" as="geometry" />
        </mxCell>
        <mxCell id="ut4NBQotwpVBYfQdr2g3-33" value="14" style="rounded=0;whiteSpace=wrap;html=1;rotation=0;strokeWidth=0;fillColor=#CB6D51;fontStyle=1;fontColor=#FFFFFF;" parent="1" vertex="1">
          <mxGeometry x="561" y="335" width="18" height="80" as="geometry" />
        </mxCell>
        <mxCell id="ut4NBQotwpVBYfQdr2g3-34" value="15" style="rounded=0;whiteSpace=wrap;html=1;rotation=0;strokeWidth=0;fillColor=#CB6D51;fontStyle=1;fontColor=#FFFFFF;" parent="1" vertex="1">
          <mxGeometry x="581" y="335" width="18" height="80" as="geometry" />
        </mxCell>
        <mxCell id="ut4NBQotwpVBYfQdr2g3-35" value="16" style="rounded=0;whiteSpace=wrap;html=1;rotation=0;strokeWidth=0;fillColor=#CB6D51;fontStyle=1;fontColor=#FFFFFF;" parent="1" vertex="1">
          <mxGeometry x="601" y="335" width="18" height="80" as="geometry" />
        </mxCell>
        <mxCell id="ut4NBQotwpVBYfQdr2g3-36" value="17" style="rounded=0;whiteSpace=wrap;html=1;rotation=0;strokeWidth=0;fillColor=#CB6D51;fontStyle=1;fontColor=#FFFFFF;" parent="1" vertex="1">
          <mxGeometry x="621" y="335" width="18" height="80" as="geometry" />
        </mxCell>
        <mxCell id="yhztme63bc7gSXWzfOLG-24" value="" style="endArrow=none;html=1;rounded=1;exitX=0.5;exitY=0;exitDx=0;exitDy=0;curved=0;strokeWidth=5.1181;dashed=1;fillColor=#e51400;strokeColor=#B20000;movable=0;resizable=0;rotatable=0;deletable=0;editable=0;locked=1;connectable=0;" edge="1" parent="1" source="ut4NBQotwpVBYfQdr2g3-21">
          <mxGeometry width="50" height="50" relative="1" as="geometry">
            <mxPoint x="361" y="232" as="sourcePoint" />
            <mxPoint x="331" y="36" as="targetPoint" />
            <Array as="points">
              <mxPoint x="330" y="268" />
              <mxPoint x="375" y="219" />
              <mxPoint x="375" y="76" />
            </Array>
          </mxGeometry>
        </mxCell>
        <mxCell id="yhztme63bc7gSXWzfOLG-36" value="" style="endArrow=none;html=1;rounded=1;exitX=0.5;exitY=0;exitDx=0;exitDy=0;curved=0;strokeWidth=3.937;" edge="1" parent="1">
          <mxGeometry width="50" height="50" relative="1" as="geometry">
            <mxPoint x="330" y="335" as="sourcePoint" />
            <mxPoint x="352" y="37" as="targetPoint" />
            <Array as="points">
              <mxPoint x="330" y="268" />
              <mxPoint x="286" y="220" />
              <mxPoint x="285" y="75" />
              <mxPoint x="340" y="28" />
            </Array>
          </mxGeometry>
        </mxCell>
        <mxCell id="yhztme63bc7gSXWzfOLG-37" value="" style="endArrow=none;html=1;rounded=1;exitX=0.5;exitY=0;exitDx=0;exitDy=0;curved=0;strokeWidth=3.937;dashed=1;" edge="1" parent="1">
          <mxGeometry width="50" height="50" relative="1" as="geometry">
            <mxPoint x="350" y="335" as="sourcePoint" />
            <mxPoint x="351" y="36" as="targetPoint" />
            <Array as="points">
              <mxPoint x="350" y="268" />
              <mxPoint x="395" y="219" />
              <mxPoint x="395" y="76" />
            </Array>
          </mxGeometry>
        </mxCell>
        <mxCell id="yhztme63bc7gSXWzfOLG-38" value="" style="endArrow=none;html=1;rounded=1;exitX=0.5;exitY=0;exitDx=0;exitDy=0;curved=0;strokeWidth=3.1496;" edge="1" parent="1">
          <mxGeometry width="50" height="50" relative="1" as="geometry">
            <mxPoint x="350" y="335" as="sourcePoint" />
            <mxPoint x="372" y="37" as="targetPoint" />
            <Array as="points">
              <mxPoint x="350" y="268" />
              <mxPoint x="306" y="220" />
              <mxPoint x="305" y="75" />
              <mxPoint x="360" y="28" />
            </Array>
          </mxGeometry>
        </mxCell>
        <mxCell id="yhztme63bc7gSXWzfOLG-39" value="" style="endArrow=none;html=1;rounded=1;exitX=0.5;exitY=0;exitDx=0;exitDy=0;curved=0;strokeWidth=3.1496;dashed=1;" edge="1" parent="1">
          <mxGeometry width="50" height="50" relative="1" as="geometry">
            <mxPoint x="370" y="335" as="sourcePoint" />
            <mxPoint x="371" y="36" as="targetPoint" />
            <Array as="points">
              <mxPoint x="370" y="268" />
              <mxPoint x="415" y="219" />
              <mxPoint x="415" y="76" />
            </Array>
          </mxGeometry>
        </mxCell>
        <mxCell id="yhztme63bc7gSXWzfOLG-40" value="" style="endArrow=none;html=1;rounded=1;exitX=0.5;exitY=0;exitDx=0;exitDy=0;curved=0;strokeWidth=1.9685;" edge="1" parent="1">
          <mxGeometry width="50" height="50" relative="1" as="geometry">
            <mxPoint x="370" y="335" as="sourcePoint" />
            <mxPoint x="392" y="37" as="targetPoint" />
            <Array as="points">
              <mxPoint x="370" y="268" />
              <mxPoint x="326" y="220" />
              <mxPoint x="325" y="75" />
              <mxPoint x="380" y="28" />
            </Array>
          </mxGeometry>
        </mxCell>
        <mxCell id="yhztme63bc7gSXWzfOLG-41" value="" style="endArrow=none;html=1;rounded=1;exitX=0.5;exitY=0;exitDx=0;exitDy=0;curved=0;strokeWidth=1.9685;dashed=1;" edge="1" parent="1">
          <mxGeometry width="50" height="50" relative="1" as="geometry">
            <mxPoint x="390" y="335" as="sourcePoint" />
            <mxPoint x="391" y="36" as="targetPoint" />
            <Array as="points">
              <mxPoint x="390" y="268" />
              <mxPoint x="435" y="219" />
              <mxPoint x="435" y="76" />
            </Array>
          </mxGeometry>
        </mxCell>
        <mxCell id="yhztme63bc7gSXWzfOLG-42" value="" style="endArrow=none;html=1;rounded=1;exitX=0.5;exitY=0;exitDx=0;exitDy=0;curved=0;strokeWidth=1.9685;" edge="1" parent="1">
          <mxGeometry width="50" height="50" relative="1" as="geometry">
            <mxPoint x="390" y="335" as="sourcePoint" />
            <mxPoint x="412" y="37" as="targetPoint" />
            <Array as="points">
              <mxPoint x="390" y="268" />
              <mxPoint x="346" y="220" />
              <mxPoint x="345" y="75" />
              <mxPoint x="400" y="28" />
            </Array>
          </mxGeometry>
        </mxCell>
        <mxCell id="yhztme63bc7gSXWzfOLG-43" value="" style="endArrow=none;html=1;rounded=1;exitX=0.5;exitY=0;exitDx=0;exitDy=0;curved=0;strokeWidth=1.9685;dashed=1;" edge="1" parent="1">
          <mxGeometry width="50" height="50" relative="1" as="geometry">
            <mxPoint x="410" y="335" as="sourcePoint" />
            <mxPoint x="411" y="36" as="targetPoint" />
            <Array as="points">
              <mxPoint x="410" y="268" />
              <mxPoint x="455" y="219" />
              <mxPoint x="455" y="76" />
            </Array>
          </mxGeometry>
        </mxCell>
        <mxCell id="yhztme63bc7gSXWzfOLG-44" value="" style="endArrow=none;html=1;rounded=1;exitX=0.5;exitY=0;exitDx=0;exitDy=0;curved=0;strokeWidth=1.9685;" edge="1" parent="1">
          <mxGeometry width="50" height="50" relative="1" as="geometry">
            <mxPoint x="410" y="335" as="sourcePoint" />
            <mxPoint x="432" y="37" as="targetPoint" />
            <Array as="points">
              <mxPoint x="410" y="268" />
              <mxPoint x="366" y="220" />
              <mxPoint x="365" y="75" />
              <mxPoint x="420" y="28" />
            </Array>
          </mxGeometry>
        </mxCell>
        <mxCell id="yhztme63bc7gSXWzfOLG-45" value="" style="endArrow=none;html=1;rounded=1;exitX=0.5;exitY=0;exitDx=0;exitDy=0;curved=0;strokeWidth=1.9685;dashed=1;" edge="1" parent="1">
          <mxGeometry width="50" height="50" relative="1" as="geometry">
            <mxPoint x="430" y="335" as="sourcePoint" />
            <mxPoint x="431" y="36" as="targetPoint" />
            <Array as="points">
              <mxPoint x="430" y="268" />
              <mxPoint x="475" y="219" />
              <mxPoint x="475" y="76" />
            </Array>
          </mxGeometry>
        </mxCell>
        <mxCell id="yhztme63bc7gSXWzfOLG-46" value="" style="endArrow=none;html=1;rounded=1;exitX=0.5;exitY=0;exitDx=0;exitDy=0;curved=0;strokeWidth=1.9685;" edge="1" parent="1">
          <mxGeometry width="50" height="50" relative="1" as="geometry">
            <mxPoint x="430" y="335" as="sourcePoint" />
            <mxPoint x="452" y="37" as="targetPoint" />
            <Array as="points">
              <mxPoint x="430" y="268" />
              <mxPoint x="386" y="220" />
              <mxPoint x="385" y="75" />
              <mxPoint x="440" y="28" />
            </Array>
          </mxGeometry>
        </mxCell>
        <mxCell id="yhztme63bc7gSXWzfOLG-47" value="" style="endArrow=none;html=1;rounded=1;exitX=0.5;exitY=0;exitDx=0;exitDy=0;curved=0;strokeWidth=1.9685;dashed=1;" edge="1" parent="1">
          <mxGeometry width="50" height="50" relative="1" as="geometry">
            <mxPoint x="450" y="335" as="sourcePoint" />
            <mxPoint x="451" y="36" as="targetPoint" />
            <Array as="points">
              <mxPoint x="450" y="268" />
              <mxPoint x="495" y="219" />
              <mxPoint x="495" y="76" />
            </Array>
          </mxGeometry>
        </mxCell>
        <mxCell id="yhztme63bc7gSXWzfOLG-48" value="" style="endArrow=none;html=1;rounded=1;exitX=0.5;exitY=0;exitDx=0;exitDy=0;curved=0;strokeWidth=1.9685;" edge="1" parent="1">
          <mxGeometry width="50" height="50" relative="1" as="geometry">
            <mxPoint x="450" y="335" as="sourcePoint" />
            <mxPoint x="472" y="37" as="targetPoint" />
            <Array as="points">
              <mxPoint x="450" y="268" />
              <mxPoint x="406" y="220" />
              <mxPoint x="405" y="75" />
              <mxPoint x="460" y="28" />
            </Array>
          </mxGeometry>
        </mxCell>
        <mxCell id="yhztme63bc7gSXWzfOLG-49" value="" style="endArrow=none;html=1;rounded=1;exitX=0.5;exitY=0;exitDx=0;exitDy=0;curved=0;strokeWidth=1.9685;dashed=1;" edge="1" parent="1">
          <mxGeometry width="50" height="50" relative="1" as="geometry">
            <mxPoint x="470" y="335" as="sourcePoint" />
            <mxPoint x="471" y="36" as="targetPoint" />
            <Array as="points">
              <mxPoint x="470" y="268" />
              <mxPoint x="515" y="219" />
              <mxPoint x="515" y="76" />
            </Array>
          </mxGeometry>
        </mxCell>
        <mxCell id="yhztme63bc7gSXWzfOLG-50" value="" style="endArrow=none;html=1;rounded=1;exitX=0.5;exitY=0;exitDx=0;exitDy=0;curved=0;strokeWidth=1.9685;" edge="1" parent="1">
          <mxGeometry width="50" height="50" relative="1" as="geometry">
            <mxPoint x="470" y="335" as="sourcePoint" />
            <mxPoint x="492" y="37" as="targetPoint" />
            <Array as="points">
              <mxPoint x="470" y="268" />
              <mxPoint x="426" y="220" />
              <mxPoint x="425" y="75" />
              <mxPoint x="480" y="28" />
            </Array>
          </mxGeometry>
        </mxCell>
        <mxCell id="yhztme63bc7gSXWzfOLG-51" value="" style="endArrow=none;html=1;rounded=1;exitX=0.5;exitY=0;exitDx=0;exitDy=0;curved=0;strokeWidth=1.9685;dashed=1;" edge="1" parent="1">
          <mxGeometry width="50" height="50" relative="1" as="geometry">
            <mxPoint x="490" y="335" as="sourcePoint" />
            <mxPoint x="491" y="36" as="targetPoint" />
            <Array as="points">
              <mxPoint x="490" y="268" />
              <mxPoint x="535" y="219" />
              <mxPoint x="535" y="76" />
            </Array>
          </mxGeometry>
        </mxCell>
        <mxCell id="yhztme63bc7gSXWzfOLG-52" value="" style="endArrow=none;html=1;rounded=1;exitX=0.5;exitY=0;exitDx=0;exitDy=0;curved=0;strokeWidth=1.9685;" edge="1" parent="1">
          <mxGeometry width="50" height="50" relative="1" as="geometry">
            <mxPoint x="490" y="335" as="sourcePoint" />
            <mxPoint x="512" y="37" as="targetPoint" />
            <Array as="points">
              <mxPoint x="490" y="268" />
              <mxPoint x="446" y="220" />
              <mxPoint x="445" y="75" />
              <mxPoint x="500" y="28" />
            </Array>
          </mxGeometry>
        </mxCell>
        <mxCell id="yhztme63bc7gSXWzfOLG-53" value="" style="endArrow=none;html=1;rounded=1;exitX=0.5;exitY=0;exitDx=0;exitDy=0;curved=0;strokeWidth=1.9685;dashed=1;" edge="1" parent="1">
          <mxGeometry width="50" height="50" relative="1" as="geometry">
            <mxPoint x="510" y="335" as="sourcePoint" />
            <mxPoint x="511" y="36" as="targetPoint" />
            <Array as="points">
              <mxPoint x="510" y="268" />
              <mxPoint x="555" y="219" />
              <mxPoint x="555" y="76" />
            </Array>
          </mxGeometry>
        </mxCell>
        <mxCell id="yhztme63bc7gSXWzfOLG-54" value="" style="endArrow=none;html=1;rounded=1;exitX=0.5;exitY=0;exitDx=0;exitDy=0;curved=0;strokeWidth=1.9685;" edge="1" parent="1">
          <mxGeometry width="50" height="50" relative="1" as="geometry">
            <mxPoint x="510" y="335" as="sourcePoint" />
            <mxPoint x="532" y="37" as="targetPoint" />
            <Array as="points">
              <mxPoint x="510" y="268" />
              <mxPoint x="466" y="220" />
              <mxPoint x="465" y="75" />
              <mxPoint x="520" y="28" />
            </Array>
          </mxGeometry>
        </mxCell>
        <mxCell id="yhztme63bc7gSXWzfOLG-55" value="" style="endArrow=none;html=1;rounded=1;exitX=0.5;exitY=0;exitDx=0;exitDy=0;curved=0;strokeWidth=1.9685;dashed=1;" edge="1" parent="1">
          <mxGeometry width="50" height="50" relative="1" as="geometry">
            <mxPoint x="530" y="335" as="sourcePoint" />
            <mxPoint x="531" y="36" as="targetPoint" />
            <Array as="points">
              <mxPoint x="530" y="268" />
              <mxPoint x="575" y="219" />
              <mxPoint x="575" y="76" />
            </Array>
          </mxGeometry>
        </mxCell>
        <mxCell id="yhztme63bc7gSXWzfOLG-56" value="" style="endArrow=none;html=1;rounded=1;exitX=0.5;exitY=0;exitDx=0;exitDy=0;curved=0;strokeWidth=1.9685;" edge="1" parent="1">
          <mxGeometry width="50" height="50" relative="1" as="geometry">
            <mxPoint x="530" y="335" as="sourcePoint" />
            <mxPoint x="552" y="37" as="targetPoint" />
            <Array as="points">
              <mxPoint x="530" y="268" />
              <mxPoint x="486" y="220" />
              <mxPoint x="485" y="75" />
              <mxPoint x="540" y="28" />
            </Array>
          </mxGeometry>
        </mxCell>
        <mxCell id="yhztme63bc7gSXWzfOLG-57" value="" style="endArrow=none;html=1;rounded=1;exitX=0.5;exitY=0;exitDx=0;exitDy=0;curved=0;strokeWidth=1.9685;dashed=1;" edge="1" parent="1">
          <mxGeometry width="50" height="50" relative="1" as="geometry">
            <mxPoint x="550" y="335" as="sourcePoint" />
            <mxPoint x="551" y="36" as="targetPoint" />
            <Array as="points">
              <mxPoint x="550" y="268" />
              <mxPoint x="595" y="219" />
              <mxPoint x="595" y="76" />
            </Array>
          </mxGeometry>
        </mxCell>
        <mxCell id="yhztme63bc7gSXWzfOLG-58" value="" style="endArrow=none;html=1;rounded=1;exitX=0.5;exitY=0;exitDx=0;exitDy=0;curved=0;strokeWidth=1.9685;" edge="1" parent="1">
          <mxGeometry width="50" height="50" relative="1" as="geometry">
            <mxPoint x="550" y="335" as="sourcePoint" />
            <mxPoint x="572" y="37" as="targetPoint" />
            <Array as="points">
              <mxPoint x="550" y="268" />
              <mxPoint x="506" y="220" />
              <mxPoint x="505" y="75" />
              <mxPoint x="560" y="28" />
            </Array>
          </mxGeometry>
        </mxCell>
        <mxCell id="yhztme63bc7gSXWzfOLG-59" value="" style="endArrow=none;html=1;rounded=1;exitX=0.5;exitY=0;exitDx=0;exitDy=0;curved=0;strokeWidth=1.9685;dashed=1;" edge="1" parent="1">
          <mxGeometry width="50" height="50" relative="1" as="geometry">
            <mxPoint x="570" y="335" as="sourcePoint" />
            <mxPoint x="571" y="36" as="targetPoint" />
            <Array as="points">
              <mxPoint x="570" y="268" />
              <mxPoint x="615" y="219" />
              <mxPoint x="615" y="76" />
            </Array>
          </mxGeometry>
        </mxCell>
        <mxCell id="yhztme63bc7gSXWzfOLG-60" value="" style="endArrow=none;html=1;rounded=1;exitX=0.5;exitY=0;exitDx=0;exitDy=0;curved=0;strokeWidth=1.9685;" edge="1" parent="1">
          <mxGeometry width="50" height="50" relative="1" as="geometry">
            <mxPoint x="570" y="335" as="sourcePoint" />
            <mxPoint x="592" y="37" as="targetPoint" />
            <Array as="points">
              <mxPoint x="570" y="268" />
              <mxPoint x="526" y="220" />
              <mxPoint x="525" y="75" />
              <mxPoint x="580" y="28" />
            </Array>
          </mxGeometry>
        </mxCell>
        <mxCell id="yhztme63bc7gSXWzfOLG-61" value="" style="endArrow=none;html=1;rounded=1;exitX=0.5;exitY=0;exitDx=0;exitDy=0;curved=0;strokeWidth=1.9685;dashed=1;" edge="1" parent="1">
          <mxGeometry width="50" height="50" relative="1" as="geometry">
            <mxPoint x="590" y="335" as="sourcePoint" />
            <mxPoint x="591" y="36" as="targetPoint" />
            <Array as="points">
              <mxPoint x="590" y="268" />
              <mxPoint x="635" y="219" />
              <mxPoint x="635" y="76" />
            </Array>
          </mxGeometry>
        </mxCell>
        <mxCell id="yhztme63bc7gSXWzfOLG-62" value="" style="endArrow=none;html=1;rounded=1;exitX=0.5;exitY=0;exitDx=0;exitDy=0;curved=0;strokeWidth=1.9685;fillColor=#dae8fc;strokeColor=#6c8ebf;" edge="1" parent="1">
          <mxGeometry width="50" height="50" relative="1" as="geometry">
            <mxPoint x="590" y="335" as="sourcePoint" />
            <mxPoint x="612" y="37" as="targetPoint" />
            <Array as="points">
              <mxPoint x="590" y="268" />
              <mxPoint x="546" y="220" />
              <mxPoint x="545" y="75" />
              <mxPoint x="600" y="28" />
            </Array>
          </mxGeometry>
        </mxCell>
        <mxCell id="yhztme63bc7gSXWzfOLG-63" value="" style="endArrow=none;html=1;rounded=1;curved=0;strokeWidth=1.9685;dashed=1;fillColor=#dae8fc;strokeColor=#6c8ebf;" edge="1" parent="1">
          <mxGeometry width="50" height="50" relative="1" as="geometry">
            <mxPoint x="161" y="235" as="sourcePoint" />
            <mxPoint x="161" y="63" as="targetPoint" />
            <Array as="points">
              <mxPoint x="175" y="219" />
              <mxPoint x="175" y="76" />
            </Array>
          </mxGeometry>
        </mxCell>
        <mxCell id="yhztme63bc7gSXWzfOLG-64" value="" style="endArrow=none;html=1;rounded=1;exitX=0.5;exitY=0;exitDx=0;exitDy=0;curved=0;strokeWidth=1.9685;fillColor=#d5e8d4;strokeColor=#82B366;" edge="1" parent="1">
          <mxGeometry width="50" height="50" relative="1" as="geometry">
            <mxPoint x="610" y="335" as="sourcePoint" />
            <mxPoint x="632" y="37" as="targetPoint" />
            <Array as="points">
              <mxPoint x="610" y="268" />
              <mxPoint x="566" y="220" />
              <mxPoint x="565" y="75" />
              <mxPoint x="620" y="28" />
            </Array>
          </mxGeometry>
        </mxCell>
        <mxCell id="yhztme63bc7gSXWzfOLG-65" value="" style="endArrow=none;html=1;rounded=1;curved=0;strokeWidth=1.9685;dashed=1;fillColor=#d5e8d4;strokeColor=#82B366;" edge="1" parent="1">
          <mxGeometry width="50" height="50" relative="1" as="geometry">
            <mxPoint x="161" y="256" as="sourcePoint" />
            <mxPoint x="160" y="43" as="targetPoint" />
            <Array as="points">
              <mxPoint x="195" y="219" />
              <mxPoint x="195" y="76" />
            </Array>
          </mxGeometry>
        </mxCell>
        <mxCell id="yhztme63bc7gSXWzfOLG-66" value="" style="endArrow=none;html=1;rounded=1;exitX=0.5;exitY=0;exitDx=0;exitDy=0;curved=0;strokeWidth=1.9685;fillColor=#e1d5e7;strokeColor=#B5739D;" edge="1" parent="1">
          <mxGeometry width="50" height="50" relative="1" as="geometry">
            <mxPoint x="630" y="336" as="sourcePoint" />
            <mxPoint x="640" y="31" as="targetPoint" />
            <Array as="points">
              <mxPoint x="630" y="269" />
              <mxPoint x="586" y="221" />
              <mxPoint x="585" y="76" />
              <mxPoint x="640" y="29" />
            </Array>
          </mxGeometry>
        </mxCell>
        <mxCell id="yhztme63bc7gSXWzfOLG-67" value="" style="endArrow=none;html=1;rounded=1;exitX=0.5;exitY=0;exitDx=0;exitDy=0;curved=0;strokeWidth=1.9685;dashed=1;fillColor=#e1d5e7;strokeColor=#9673a6;" edge="1" parent="1">
          <mxGeometry width="50" height="50" relative="1" as="geometry">
            <mxPoint x="170" y="335" as="sourcePoint" />
            <mxPoint x="171" y="36" as="targetPoint" />
            <Array as="points">
              <mxPoint x="170" y="268" />
              <mxPoint x="215" y="219" />
              <mxPoint x="215" y="76" />
            </Array>
          </mxGeometry>
        </mxCell>
        <mxCell id="yhztme63bc7gSXWzfOLG-68" value="" style="endArrow=none;html=1;rounded=0;exitX=1;exitY=1;exitDx=0;exitDy=0;entryX=1;entryY=1;entryDx=0;entryDy=0;fillColor=#0050ef;strokeColor=#000000;dashed=1;strokeWidth=1.1810999999999998;dashPattern=1 2;" edge="1" parent="1" source="ut4NBQotwpVBYfQdr2g3-36">
          <mxGeometry width="50" height="50" relative="1" as="geometry">
            <mxPoint x="627" y="408" as="sourcePoint" />
            <mxPoint x="639.0000000000002" y="-6.821210263296962e-13" as="targetPoint" />
          </mxGeometry>
        </mxCell>
        <mxCell id="yhztme63bc7gSXWzfOLG-71" value="" style="endArrow=none;html=1;rounded=1;exitX=0.5;exitY=0;exitDx=0;exitDy=0;curved=0;strokeWidth=1.9685;" edge="1" parent="1">
          <mxGeometry width="50" height="50" relative="1" as="geometry">
            <mxPoint x="290" y="335" as="sourcePoint" />
            <mxPoint x="312" y="37" as="targetPoint" />
            <Array as="points">
              <mxPoint x="290" y="268" />
              <mxPoint x="246" y="220" />
              <mxPoint x="245" y="75" />
              <mxPoint x="300" y="28" />
            </Array>
          </mxGeometry>
        </mxCell>
        <mxCell id="yhztme63bc7gSXWzfOLG-72" value="" style="endArrow=none;html=1;rounded=1;exitX=0.5;exitY=0;exitDx=0;exitDy=0;curved=0;strokeWidth=1.9685;dashed=1;" edge="1" parent="1">
          <mxGeometry width="50" height="50" relative="1" as="geometry">
            <mxPoint x="310" y="335" as="sourcePoint" />
            <mxPoint x="311" y="36" as="targetPoint" />
            <Array as="points">
              <mxPoint x="310" y="268" />
              <mxPoint x="355" y="219" />
              <mxPoint x="355" y="76" />
            </Array>
          </mxGeometry>
        </mxCell>
        <mxCell id="yhztme63bc7gSXWzfOLG-74" value="" style="endArrow=none;html=1;rounded=1;exitX=0.5;exitY=0;exitDx=0;exitDy=0;curved=0;strokeWidth=1.9685;dashed=1;" edge="1" parent="1">
          <mxGeometry width="50" height="50" relative="1" as="geometry">
            <mxPoint x="290" y="335" as="sourcePoint" />
            <mxPoint x="291" y="36" as="targetPoint" />
            <Array as="points">
              <mxPoint x="290" y="268" />
              <mxPoint x="335" y="219" />
              <mxPoint x="335" y="76" />
            </Array>
          </mxGeometry>
        </mxCell>
        <mxCell id="yhztme63bc7gSXWzfOLG-73" value="" style="endArrow=none;html=1;rounded=1;exitX=0.5;exitY=0;exitDx=0;exitDy=0;curved=0;strokeWidth=1.9685;" edge="1" parent="1">
          <mxGeometry width="50" height="50" relative="1" as="geometry">
            <mxPoint x="270" y="335" as="sourcePoint" />
            <mxPoint x="292" y="37" as="targetPoint" />
            <Array as="points">
              <mxPoint x="270" y="268" />
              <mxPoint x="226" y="220" />
              <mxPoint x="225" y="75" />
              <mxPoint x="280" y="28" />
            </Array>
          </mxGeometry>
        </mxCell>
        <mxCell id="yhztme63bc7gSXWzfOLG-75" value="" style="endArrow=none;html=1;rounded=1;exitX=0.5;exitY=0;exitDx=0;exitDy=0;curved=0;strokeWidth=1.9685;" edge="1" parent="1">
          <mxGeometry width="50" height="50" relative="1" as="geometry">
            <mxPoint x="250" y="335" as="sourcePoint" />
            <mxPoint x="272" y="37" as="targetPoint" />
            <Array as="points">
              <mxPoint x="250" y="268" />
              <mxPoint x="206" y="220" />
              <mxPoint x="205" y="75" />
              <mxPoint x="260" y="28" />
            </Array>
          </mxGeometry>
        </mxCell>
        <mxCell id="yhztme63bc7gSXWzfOLG-76" value="" style="endArrow=none;html=1;rounded=1;exitX=0.5;exitY=0;exitDx=0;exitDy=0;curved=0;strokeWidth=1.9685;dashed=1;" edge="1" parent="1">
          <mxGeometry width="50" height="50" relative="1" as="geometry">
            <mxPoint x="270" y="335" as="sourcePoint" />
            <mxPoint x="271" y="36" as="targetPoint" />
            <Array as="points">
              <mxPoint x="270" y="268" />
              <mxPoint x="315" y="219" />
              <mxPoint x="315" y="76" />
            </Array>
          </mxGeometry>
        </mxCell>
        <mxCell id="yhztme63bc7gSXWzfOLG-77" value="" style="endArrow=none;html=1;rounded=1;exitX=0.5;exitY=0;exitDx=0;exitDy=0;curved=0;strokeWidth=1.9685;" edge="1" parent="1">
          <mxGeometry width="50" height="50" relative="1" as="geometry">
            <mxPoint x="230" y="335" as="sourcePoint" />
            <mxPoint x="252" y="37" as="targetPoint" />
            <Array as="points">
              <mxPoint x="230" y="268" />
              <mxPoint x="186" y="220" />
              <mxPoint x="185" y="75" />
              <mxPoint x="240" y="28" />
            </Array>
          </mxGeometry>
        </mxCell>
        <mxCell id="yhztme63bc7gSXWzfOLG-78" value="" style="endArrow=none;html=1;rounded=1;exitX=0.5;exitY=0;exitDx=0;exitDy=0;curved=0;strokeWidth=1.9685;dashed=1;" edge="1" parent="1">
          <mxGeometry width="50" height="50" relative="1" as="geometry">
            <mxPoint x="250" y="335" as="sourcePoint" />
            <mxPoint x="251" y="36" as="targetPoint" />
            <Array as="points">
              <mxPoint x="250" y="268" />
              <mxPoint x="295" y="219" />
              <mxPoint x="295" y="76" />
            </Array>
          </mxGeometry>
        </mxCell>
        <mxCell id="yhztme63bc7gSXWzfOLG-80" value="" style="endArrow=none;html=1;rounded=1;exitX=0.5;exitY=0;exitDx=0;exitDy=0;curved=0;strokeWidth=1.9685;dashed=1;" edge="1" parent="1">
          <mxGeometry width="50" height="50" relative="1" as="geometry">
            <mxPoint x="230" y="335" as="sourcePoint" />
            <mxPoint x="231" y="36" as="targetPoint" />
            <Array as="points">
              <mxPoint x="230" y="268" />
              <mxPoint x="275" y="219" />
              <mxPoint x="275" y="76" />
            </Array>
          </mxGeometry>
        </mxCell>
        <mxCell id="yhztme63bc7gSXWzfOLG-82" value="" style="endArrow=none;html=1;rounded=1;exitX=0.5;exitY=0;exitDx=0;exitDy=0;curved=0;strokeWidth=1.9685;dashed=1;fillColor=#ffe6cc;strokeColor=light-dark(#67AB9F,#996500);" edge="1" parent="1">
          <mxGeometry width="50" height="50" relative="1" as="geometry">
            <mxPoint x="210" y="335" as="sourcePoint" />
            <mxPoint x="211" y="36" as="targetPoint" />
            <Array as="points">
              <mxPoint x="210" y="268" />
              <mxPoint x="255" y="219" />
              <mxPoint x="255" y="76" />
            </Array>
          </mxGeometry>
        </mxCell>
        <mxCell id="yhztme63bc7gSXWzfOLG-94" value="" style="endArrow=none;html=1;rounded=0;exitX=0;exitY=1;exitDx=0;exitDy=0;entryX=0;entryY=1;entryDx=0;entryDy=0;dashed=1;dashPattern=1 2;strokeColor=#000000;" edge="1" parent="1" target="ut4NBQotwpVBYfQdr2g3-7">
          <mxGeometry width="50" height="50" relative="1" as="geometry">
            <mxPoint x="161" y="-2.2737367544323206e-13" as="sourcePoint" />
            <mxPoint x="310" y="68" as="targetPoint" />
          </mxGeometry>
        </mxCell>
        <mxCell id="yhztme63bc7gSXWzfOLG-107" value="" style="endArrow=none;html=1;rounded=0;exitX=1;exitY=0;exitDx=0;exitDy=0;entryX=0;entryY=0;entryDx=0;entryDy=0;" edge="1" parent="1" source="yhztme63bc7gSXWzfOLG-96" target="yhztme63bc7gSXWzfOLG-100">
          <mxGeometry width="50" height="50" relative="1" as="geometry">
            <mxPoint x="353" y="123" as="sourcePoint" />
            <mxPoint x="403" y="73" as="targetPoint" />
          </mxGeometry>
        </mxCell>
        <mxCell id="yhztme63bc7gSXWzfOLG-109" value="+" style="rounded=0;whiteSpace=wrap;html=1;rotation=0;strokeWidth=0;fillColor=#666666;fontStyle=1;fontColor=#FFFFFF;" vertex="1" parent="1">
          <mxGeometry x="372" y="355" width="18" height="41" as="geometry" />
        </mxCell>
        <mxCell id="yhztme63bc7gSXWzfOLG-110" value="-" style="rounded=0;whiteSpace=wrap;html=1;rotation=0;strokeWidth=0;fillColor=#666666;fontStyle=1;fontColor=#FFFFFF;" vertex="1" parent="1">
          <mxGeometry x="490" y="355" width="18" height="41" as="geometry" />
        </mxCell>
        <mxCell id="yhztme63bc7gSXWzfOLG-111" value="+" style="rounded=0;whiteSpace=wrap;html=1;rotation=0;strokeWidth=0;fillColor=#666666;fontStyle=1;fontColor=#FFFFFF;" vertex="1" parent="1">
          <mxGeometry x="608" y="355" width="18" height="41" as="geometry" />
        </mxCell>
        <mxCell id="yhztme63bc7gSXWzfOLG-112" value="-" style="rounded=0;whiteSpace=wrap;html=1;rotation=0;strokeWidth=0;fillColor=#666666;fontStyle=1;fontColor=#FFFFFF;" vertex="1" parent="1">
          <mxGeometry x="254" y="355" width="18" height="41" as="geometry" />
        </mxCell>
        <mxCell id="yhztme63bc7gSXWzfOLG-115" value="" style="endArrow=none;html=1;rounded=1;strokeWidth=1.9685;curved=0;fillColor=#76608a;strokeColor=#B5739D;" edge="1" parent="1">
          <mxGeometry width="50" height="50" relative="1" as="geometry">
            <mxPoint x="161" y="31" as="sourcePoint" />
            <mxPoint x="171" y="36" as="targetPoint" />
            <Array as="points">
              <mxPoint x="165" y="31" />
            </Array>
          </mxGeometry>
        </mxCell>
        <mxCell id="yhztme63bc7gSXWzfOLG-117" value="" style="endArrow=none;html=1;rounded=0;strokeWidth=1.9685;dashed=1;strokeColor=#82B366;" edge="1" parent="1">
          <mxGeometry width="50" height="50" relative="1" as="geometry">
            <mxPoint x="639" y="43" as="sourcePoint" />
            <mxPoint x="631" y="36" as="targetPoint" />
          </mxGeometry>
        </mxCell>
        <mxCell id="yhztme63bc7gSXWzfOLG-121" value="" style="endArrow=none;html=1;rounded=0;strokeWidth=1.9685;dashed=1;strokeColor=#6C8EBF;" edge="1" parent="1">
          <mxGeometry width="50" height="50" relative="1" as="geometry">
            <mxPoint x="611" y="36" as="sourcePoint" />
            <mxPoint x="639" y="61" as="targetPoint" />
          </mxGeometry>
        </mxCell>
        <mxCell id="yhztme63bc7gSXWzfOLG-123" value="" style="endArrow=none;html=1;rounded=1;curved=0;strokeWidth=1.9685;strokeColor=#D6B656;" edge="1" parent="1">
          <mxGeometry width="50" height="50" relative="1" as="geometry">
            <mxPoint x="640" y="258" as="sourcePoint" />
            <mxPoint x="640" y="44" as="targetPoint" />
            <Array as="points">
              <mxPoint x="639" y="258" />
              <mxPoint x="603" y="219" />
              <mxPoint x="604" y="75" />
            </Array>
          </mxGeometry>
        </mxCell>
        <mxCell id="yhztme63bc7gSXWzfOLG-79" value="" style="endArrow=none;html=1;rounded=1;exitX=0.5;exitY=0;exitDx=0;exitDy=0;curved=0;strokeWidth=1.9685;" edge="1" parent="1">
          <mxGeometry width="50" height="50" relative="1" as="geometry">
            <mxPoint x="210" y="335" as="sourcePoint" />
            <mxPoint x="232" y="37" as="targetPoint" />
            <Array as="points">
              <mxPoint x="210" y="268" />
              <mxPoint x="166" y="220" />
              <mxPoint x="165" y="75" />
              <mxPoint x="220" y="28" />
            </Array>
          </mxGeometry>
        </mxCell>
        <mxCell id="yhztme63bc7gSXWzfOLG-125" value="" style="endArrow=none;html=1;rounded=1;exitX=0.5;exitY=0;exitDx=0;exitDy=0;curved=0;strokeColor=#D6B656;strokeWidth=1.9685;" edge="1" parent="1" source="ut4NBQotwpVBYfQdr2g3-7">
          <mxGeometry width="50" height="50" relative="1" as="geometry">
            <mxPoint x="190" y="358" as="sourcePoint" />
            <mxPoint x="161" y="258" as="targetPoint" />
            <Array as="points">
              <mxPoint x="170" y="269" />
            </Array>
          </mxGeometry>
        </mxCell>
        <mxCell id="yhztme63bc7gSXWzfOLG-126" value="" style="endArrow=none;html=1;rounded=1;curved=0;strokeWidth=1.9685;strokeColor=#D6B656;" edge="1" parent="1">
          <mxGeometry width="50" height="50" relative="1" as="geometry">
            <mxPoint x="161" y="44" as="sourcePoint" />
            <mxPoint x="191" y="36" as="targetPoint" />
            <Array as="points">
              <mxPoint x="180" y="28" />
            </Array>
          </mxGeometry>
        </mxCell>
        <mxCell id="yhztme63bc7gSXWzfOLG-127" value="" style="endArrow=none;html=1;rounded=1;exitX=0.5;exitY=0;exitDx=0;exitDy=0;curved=0;strokeWidth=1.9685;strokeColor=#67AB9F;" edge="1" parent="1" source="ut4NBQotwpVBYfQdr2g3-14">
          <mxGeometry width="50" height="50" relative="1" as="geometry">
            <mxPoint x="241" y="188" as="sourcePoint" />
            <mxPoint x="161" y="236" as="targetPoint" />
            <Array as="points">
              <mxPoint x="190" y="268" />
            </Array>
          </mxGeometry>
        </mxCell>
        <mxCell id="yhztme63bc7gSXWzfOLG-128" value="" style="endArrow=none;html=1;rounded=1;curved=0;strokeWidth=1.9685;strokeColor=#67AB9F;" edge="1" parent="1">
          <mxGeometry width="50" height="50" relative="1" as="geometry">
            <mxPoint x="160" y="62" as="sourcePoint" />
            <mxPoint x="211" y="36" as="targetPoint" />
            <Array as="points">
              <mxPoint x="200" y="28" />
            </Array>
          </mxGeometry>
        </mxCell>
        <mxCell id="yhztme63bc7gSXWzfOLG-23" value="" style="endArrow=none;html=1;rounded=1;exitX=0.5;exitY=0;exitDx=0;exitDy=0;curved=0;strokeWidth=5.1181;fillColor=#e51400;strokeColor=#B20000;" edge="1" parent="1" source="ut4NBQotwpVBYfQdr2g3-20">
          <mxGeometry width="50" height="50" relative="1" as="geometry">
            <mxPoint x="281" y="253" as="sourcePoint" />
            <mxPoint x="332" y="37" as="targetPoint" />
            <Array as="points">
              <mxPoint x="310" y="268" />
              <mxPoint x="266" y="220" />
              <mxPoint x="265" y="75" />
              <mxPoint x="320" y="28" />
            </Array>
          </mxGeometry>
        </mxCell>
        <mxCell id="yhztme63bc7gSXWzfOLG-130" value="" style="endArrow=none;html=1;rounded=1;curved=0;strokeWidth=1.9685;strokeColor=#67AB9F;" edge="1" parent="1">
          <mxGeometry width="50" height="50" relative="1" as="geometry">
            <mxPoint x="640" y="235" as="sourcePoint" />
            <mxPoint x="639" y="63" as="targetPoint" />
            <Array as="points">
              <mxPoint x="626" y="220" />
              <mxPoint x="625" y="75" />
            </Array>
          </mxGeometry>
        </mxCell>
        <mxCell id="yhztme63bc7gSXWzfOLG-132" value="" style="endArrow=none;html=1;rounded=0;dashed=1;dashPattern=1 2;" edge="1" parent="1">
          <mxGeometry width="50" height="50" relative="1" as="geometry">
            <mxPoint x="375" y="91" as="sourcePoint" />
            <mxPoint x="375" y="-39" as="targetPoint" />
          </mxGeometry>
        </mxCell>
        <mxCell id="yhztme63bc7gSXWzfOLG-133" value="" style="endArrow=none;html=1;rounded=0;dashed=1;dashPattern=1 2;" edge="1" parent="1">
          <mxGeometry width="50" height="50" relative="1" as="geometry">
            <mxPoint x="285" y="91" as="sourcePoint" />
            <mxPoint x="285" y="4" as="targetPoint" />
          </mxGeometry>
        </mxCell>
        <mxCell id="yhztme63bc7gSXWzfOLG-134" value="" style="endArrow=baseDash;startArrow=classic;html=1;rounded=0;startFill=1;endFill=0;" edge="1" parent="1">
          <mxGeometry width="50" height="50" relative="1" as="geometry">
            <mxPoint x="285" y="18" as="sourcePoint" />
            <mxPoint x="375" y="18" as="targetPoint" />
          </mxGeometry>
        </mxCell>
        <mxCell id="yhztme63bc7gSXWzfOLG-135" value="&lt;font style=&quot;font-size: 20px;&quot; face=&quot;Times New Roman&quot;&gt;&lt;i style=&quot;&quot;&gt;y&lt;/i&gt;&lt;sub style=&quot;&quot;&gt;2&lt;i style=&quot;&quot;&gt;k&lt;/i&gt;&lt;/sub&gt;&lt;/font&gt;" style="edgeLabel;html=1;align=center;verticalAlign=bottom;resizable=0;points=[];labelPosition=center;verticalLabelPosition=top;" vertex="1" connectable="0" parent="yhztme63bc7gSXWzfOLG-134">
          <mxGeometry x="-0.0906" y="1" relative="1" as="geometry">
            <mxPoint as="offset" />
          </mxGeometry>
        </mxCell>
        <mxCell id="yhztme63bc7gSXWzfOLG-136" value="" style="endArrow=classic;startArrow=baseDash;html=1;rounded=0;startFill=0;" edge="1" parent="1">
          <mxGeometry width="50" height="50" relative="1" as="geometry">
            <mxPoint x="265" y="-27" as="sourcePoint" />
            <mxPoint x="376" y="-27" as="targetPoint" />
          </mxGeometry>
        </mxCell>
        <mxCell id="yhztme63bc7gSXWzfOLG-137" value="&lt;font style=&quot;font-size: 20px;&quot; face=&quot;Times New Roman&quot;&gt;&lt;i style=&quot;&quot;&gt;y&lt;/i&gt;&lt;sub style=&quot;&quot;&gt;1&lt;i style=&quot;&quot;&gt;k&lt;/i&gt;&lt;/sub&gt;&lt;/font&gt;" style="edgeLabel;html=1;align=center;verticalAlign=bottom;resizable=0;points=[];labelPosition=center;verticalLabelPosition=top;" vertex="1" connectable="0" parent="yhztme63bc7gSXWzfOLG-136">
          <mxGeometry x="-0.0906" y="1" relative="1" as="geometry">
            <mxPoint as="offset" />
          </mxGeometry>
        </mxCell>
      </root>
    </mxGraphModel>
  </diagram>
</mxfile>
